<svg width="32" height="32" xmlns="http://www.w3.org/2000/svg">
 <!-- Created with Method Draw - http://github.com/duopixel/Method-Draw/ -->
 <g>
  <title>background</title>
  <rect fill="none" id="canvas_background" height="34" width="34" y="-1" x="-1"/>
  <g display="none" overflow="visible" y="0" x="0" height="100%" width="100%" id="canvasGrid">
   <rect fill="url(#gridpattern)" stroke-width="0" y="0" x="0" height="100%" width="100%"/>
  </g>
 </g>
 <g>
  <title>Layer 1</title>
  <path stroke="#000" id="svg_2" d="m18.098499,19.949956l-0.760803,-2.584934c0.22296,-0.189859 0.43223,-0.393009 0.629765,-0.610398l2.660854,0.738553c0.280656,-0.396806 0.522196,-0.818293 0.738311,-1.255919l-1.980239,-1.860621c0.094856,-0.273397 0.176999,-0.551541 0.235673,-0.838229l2.668677,-0.649319c0.019558,-0.239223 0.038138,-0.479395 0.038138,-0.724313s-0.019558,-0.484141 -0.038138,-0.723364l-2.668677,-0.649319c-0.059652,-0.286687 -0.141795,-0.564831 -0.235673,-0.838229l1.981217,-1.860621c-0.217093,-0.436676 -0.458633,-0.859113 -0.739289,-1.255919l-2.660854,0.737603c-0.196557,-0.21644 -0.406805,-0.419589 -0.629765,-0.610398l0.760803,-2.583985c-0.40876,-0.271499 -0.843924,-0.506924 -1.294734,-0.716719l-1.916676,1.923274c-0.280656,-0.092082 -0.568157,-0.170873 -0.863482,-0.22878l-0.667903,-2.591579c-0.247408,-0.018037 -0.493837,-0.037023 -0.746134,-0.037023s-0.498727,0.018986 -0.745157,0.037023l-0.668881,2.591579c-0.295325,0.057907 -0.581848,0.136699 -0.863482,0.22878l-1.916676,-1.923274c-0.449832,0.212642 -0.884018,0.447119 -1.292778,0.719567l0.760803,2.583985c-0.22296,0.189859 -0.433208,0.393958 -0.628787,0.609448l-2.661832,-0.738553c-0.280656,0.396806 -0.522196,0.819243 -0.738311,1.256868l1.981217,1.860621c-0.093878,0.273397 -0.176021,0.551541 -0.235673,0.838229l-2.669655,0.649319c-0.01858,0.239223 -0.038138,0.479395 -0.038138,0.723364s0.019558,0.484141 0.038138,0.724313l2.669655,0.649319c0.059652,0.286687 0.141795,0.564831 0.235673,0.838229l-1.981217,1.860621c0.216115,0.436676 0.457655,0.859113 0.738311,1.255919l2.661832,-0.738553c0.195579,0.217389 0.405827,0.419589 0.628787,0.610398l-0.760803,2.584934c0.40876,0.271499 0.843924,0.505975 1.293756,0.716719l1.916676,-1.923274c0.281634,0.092082 0.568157,0.171823 0.863482,0.22878l0.668881,2.59063c0.24643,0.018986 0.493837,0.037023 0.746134,0.037023s0.498727,-0.018986 0.746134,-0.037023l0.667903,-2.59063c0.295325,-0.057907 0.582826,-0.137648 0.863482,-0.22878l1.916676,1.923274c0.448854,-0.212642 0.884018,-0.447119 1.292778,-0.718617zm-5.487951,-4.557572c-1.83551,0 -3.323868,-1.444829 -3.323868,-3.226658s1.488357,-3.225709 3.323868,-3.225709s3.32289,1.44388 3.32289,3.225709s-1.487379,3.226658 -3.32289,3.226658zm15.14956,6.74475c0.01858,-0.519265 -0.058674,-1.048023 -0.224916,-1.570136l1.216502,-1.683102c-0.183844,-0.332254 -0.391158,-0.64742 -0.626831,-0.934108l-2.075095,0.422437c-0.418539,-0.345544 -0.894775,-0.615144 -1.404258,-0.807851l-0.597494,-1.973587c-0.377468,-0.064552 -0.759825,-0.099676 -1.147072,-0.100625l-0.95247,1.837838c-0.272833,0.051262 -0.545666,0.12151 -0.813609,0.221186c-0.251319,0.093031 -0.486014,0.208845 -0.71093,0.335102l-1.961659,-0.777474c-0.290435,0.248716 -0.555445,0.517366 -0.795029,0.8088l0.886951,1.868215c-0.253275,0.469902 -0.42734,0.975877 -0.507528,1.504635l-1.849201,1.006254c0.01858,0.368327 0.07432,0.736654 0.160375,1.10593l2.057493,0.492685c0.225894,0.497431 0.529042,0.942651 0.895752,1.32237l-0.344219,2.029595c0.312927,0.218338 0.645411,0.406299 0.990608,0.569578l1.677091,-1.253071c0.524152,0.133851 1.072752,0.185113 1.625263,0.142394l1.419905,1.525519c0.195579,-0.05411 0.39018,-0.112017 0.582826,-0.183214c0.171132,-0.062654 0.332485,-0.136699 0.493837,-0.211693l0.036182,-2.055226c0.444943,-0.321811 0.824366,-0.709124 1.126536,-1.144851l2.113233,-0.127206c0.14864,-0.340797 0.272833,-0.694885 0.359866,-1.058465l-1.632108,-1.311927zm-4.07098,1.905238c-1.174453,0.434778 -2.488745,-0.136699 -2.937599,-1.276804s0.139839,-2.416908 1.314292,-2.852635c1.174453,-0.434778 2.4907,0.136699 2.939555,1.276804c0.447876,1.140105 -0.141795,2.416908 -1.316248,2.852635z" stroke-opacity="null" stroke-width="1.5" fill="#56ff56"/>
 </g>
</svg>