<svg width="32" height="32" xmlns="http://www.w3.org/2000/svg">

 <metadata id="metadata7">image/svg+xml</metadata>
 <g>
  <title>background</title>
  <rect fill="none" id="canvas_background" height="402" width="582" y="-1" x="-1"/>
 </g>
 <g>
  <title>Layer 1</title>
  <path stroke="#0a0001" id="svg_1" d="m27.418288,29.139089l0,-14.166618l0,0c0,-6.085339 -4.788049,-11.018482 -10.694409,-11.018482l0,0l0,0c-2.836333,0 -5.556497,1.160873 -7.56209,3.227238c-2.005591,2.066366 -3.132318,4.86896 -3.132318,7.791243l0,1.574069l-3.055543,0l6.111086,6.296277l6.111092,-6.296277l-3.055545,0l0,-1.574069c0,-2.608002 2.052022,-4.722205 4.583316,-4.722205l0,0l0,0c2.531297,0 4.583318,2.114203 4.583318,4.722205l0,14.166618l6.111091,0z" stroke-width="1.5" fill="#ff0f33"/>
 </g>
</svg>